# Blender 5.0.1
# www.blender.org
mtllib Prism Coil Disruptor.mtl
o Muzzle_Plane
v -2.005921 0.000000 5.954073
v 1.994079 0.000000 5.954073
v -2.005921 0.000000 1.954073
v 1.994079 0.000000 1.954073
v -0.005921 2.000000 5.954073
v -0.005921 -2.000000 5.954073
v -0.005921 2.000000 1.954073
v -0.005921 -2.000000 1.954074
vn -0.0000 1.0000 -0.0000
vn 1.0000 -0.0000 -0.0000
vt 1.000000 1.000000
vt 0.000000 1.000000
vt 0.000000 0.000000
vt 1.000000 0.000000
s 1
f 1/1/1 2/2/1 4/3/1 3/4/1
f 5/1/2 6/2/2 8/3/2 7/4/2
